<svg xmlns="http://www.w3.org/2000/svg" width="418" height="161" role="img" aria-label="Proxi Lawrence" viewBox="0 0 418 161" fill="none">
<g clip-path="url(#clip0_12_424)">
<path d="M51.1529 159.22L0.485684 159.539L0.459665 157.474C8.81169 157.223 9.96519 152.349 9.76571 121.437C9.56623 90.6025 8.37804 85.763 0.0260188 85.6074L0 83.4556L26.0881 83.2827L26.1142 85.4605C22.2721 85.5728 19.7743 86.7568 18.4386 91.7432C17.051 96.9111 16.8255 106.53 16.9209 121.385L17.1377 156.826L42.0637 156.679L48.8632 131.998L50.9794 132.36L51.1529 159.22Z" fill="#ffffff"/>
<path d="M102.861 155.728C97.2147 155.763 95.5322 152.695 95.4454 137.243L95.35 122.353C95.2546 109.33 88.0301 104.084 77.9608 104.136C68.3339 104.196 60.5022 108.984 60.5456 117.479C60.5803 123.105 64.0321 125.957 67.6921 125.939C72.3408 125.905 74.7518 122.249 73.0606 117.851C70.0858 118.542 68.4033 116.122 68.3946 113.573C68.3686 110.038 71.8898 107.039 77.5358 107.005C88.0648 106.944 88.1168 117.202 88.1515 122.388C88.2122 132.214 59.1753 128.532 59.3054 148.063C59.3487 156.774 65.1336 161.035 72.1239 161C78.2123 160.957 85.6017 157.707 88.3163 148.875V149.091C88.377 158.131 91.161 160.87 95.5842 160.853C98.5763 160.827 100.667 159.496 102.878 157.828V155.728H102.861ZM75.94 155.918H75.8967C70.6495 155.918 66.8248 151.762 66.7901 146.015C66.7467 138.107 73.7024 135.065 79.8428 132.386C83.1472 130.952 86.2608 129.586 87.7265 127.668L88.7499 126.311L88.8453 141.028C88.8887 148.78 82.7483 155.875 75.9487 155.918H75.94Z" fill="#ffffff"/>
<path d="M177.066 107.506C172.938 108.768 170.223 115.198 154.855 158.589L151.672 158.615L138.654 123.373L126.07 158.77L122.999 158.796C105.61 111.914 104.257 108.967 100.71 107.973V105.795L120.692 105.665L120.718 107.8C118.524 108.189 117.119 108.993 116.304 110.341C113.719 114.636 117.084 124.894 125.992 149.048L126.547 150.535L137.37 120.089L137.301 119.89C133.841 110.937 131.846 108.604 129.409 107.8L129.383 105.614L149.27 105.475L149.296 107.61C147.084 107.99 145.662 108.811 144.846 110.177C142.236 114.523 145.653 124.799 154.673 148.988L155.228 150.474L155.757 148.988C163.658 126.622 166.884 115.128 163.866 110.323C162.921 108.811 161.351 107.904 159.079 107.549V105.432L177.066 105.302L177.092 107.506H177.066Z" fill="#ffffff"/>
<path d="M216.953 112.544C216.988 117.79 214.473 121.472 210.83 121.497H210.787C208.558 121.497 207.023 120.115 206.589 118.689C208.15 117.453 209.043 115.569 209.026 113.486C209.026 112.112 208.532 110.911 207.621 110.004C206.736 109.131 205.513 108.647 204.334 108.63C203.415 108.63 200.639 108.655 198.237 111.611C195.462 115.042 194.083 121.264 194.143 130.122C194.273 150.569 195.444 156.048 203.831 156.23V158.278L179.425 158.442L179.399 156.376C187.691 156.1 188.783 150.958 188.662 131.816C188.549 112.665 187.396 107.532 179.104 107.359L179.078 105.311L193.987 105.207L194.083 118.697L195.184 115.292C197.474 108.206 202.296 103.946 208.063 103.911C211.133 103.92 213.18 105.251 214.334 106.383C215.99 108.007 216.944 110.254 216.953 112.553V112.544Z" fill="#ffffff"/>
<path d="M260.109 140.423C258.184 151.243 250.352 156.031 243.926 156.083C231.09 156.152 228.02 143.82 227.95 131.565V131.012L263.379 130.796C263.275 114.359 255.556 103.047 241.723 103.125C226.554 103.22 219.225 116.727 219.312 131.617C219.407 146.516 226.354 160.041 242.963 159.937C253.709 159.868 261.402 151.883 263.769 141.279L260.109 140.423ZM227.456 127.227C228.367 113.426 233.44 105.795 241.74 105.743H241.818C253.379 105.743 255.391 120.642 255.73 127.054L255.764 127.659L227.421 127.832L227.456 127.227Z" fill="#ffffff"/>
<path d="M323.535 157.552L299.103 157.716L299.077 155.642C302.815 155.512 305.417 154.268 306.804 149.117C308.149 144.088 308.366 135.135 308.279 121.376C308.244 116.26 307.507 112.657 306.024 110.315C304.541 107.973 302.295 106.841 299.172 106.841H299.103C296.77 106.849 292.312 107.532 288.626 111.896C284.81 116.416 282.911 123.589 282.963 133.216C283.032 144.502 283.596 150.768 286.527 153.646C287.897 154.985 289.78 155.625 292.616 155.685L292.642 157.751L268.21 157.897V155.832C272.408 155.694 274.663 154.216 275.92 150.82C277.291 147.095 277.516 140.821 277.464 131.263C277.334 112.112 276.189 106.979 267.906 106.806L267.88 104.758L282.789 104.663L282.893 121.696L283.995 118.162C287.169 107.964 292.208 103.401 300.291 103.341H300.439C309.606 103.341 314.159 109.235 314.333 121.333V121.714C314.723 149.117 314.818 155.288 323.508 155.495L323.535 157.543V157.552Z" fill="#ffffff"/>
<path d="M368.287 141.063C366.058 151.909 358.669 158.658 348.912 158.718H348.773C336.015 158.718 327.377 147.622 327.273 131.073C327.195 117.176 333.942 103.125 349.224 103.038H349.363C359.068 103.038 366.414 108.897 366.457 116.701C366.483 119.441 365.754 121.688 364.436 123.018C363.439 124.03 362.086 124.539 360.447 124.557C358.235 124.565 356.535 123.788 355.451 122.301C354.332 120.763 354.037 118.68 354.627 116.641C358.122 116.044 358.851 113.823 358.833 112.017C358.807 108.552 356.041 105.095 349.892 105.095H349.796C340.004 105.155 334.671 114.325 334.757 130.917C334.861 147.328 340.178 156.005 350.126 156.005H350.221C357.975 155.944 363.465 150.431 365.728 140.458L368.278 141.063H368.287Z" fill="#ffffff"/>
<path d="M414.34 139.473C412.415 150.293 404.583 155.08 398.156 155.132C385.321 155.21 382.25 142.869 382.181 130.623V130.07L417.61 129.854C417.506 113.409 409.796 102.096 395.954 102.174C380.793 102.278 373.456 115.777 373.543 130.667C373.638 145.565 380.585 159.09 397.194 158.986C407.94 158.926 415.632 150.932 418 140.328L414.34 139.473ZM381.687 126.277C382.606 112.475 387.68 104.853 395.971 104.81H396.066C407.636 104.81 409.639 119.709 409.96 126.13L409.995 126.726L381.652 126.89L381.687 126.285V126.277Z" fill="#ffffff"/>
<path d="M156.962 20.8876C156.893 10.2925 150.735 -0.146968 126.156 -5.43107e-05L100.467 0.164143V3.47402C108.68 3.41353 110.025 7.16414 110.224 38.716C110.424 70.2679 109.123 74.1481 100.927 74.1913V77.3888L128.177 77.216V74.0185C119.86 74.079 118.724 69.9913 118.55 42.1901L126.52 42.1469C150.995 42 157.014 31.3703 156.954 20.8876H156.962ZM117.952 38.9148L117.743 3.33575L126.286 3.29254H126.564C143.728 3.29254 147.405 12.816 147.457 20.8444C147.492 26.1851 145.948 30.4456 142.886 33.4962C139.356 37.0135 133.832 38.8111 126.494 38.8629L117.952 38.9234V38.9148Z" fill="#ffffff"/>
<path d="M201.619 30.5407C201.654 35.8036 199.139 39.4851 195.496 39.5024H195.47C193.224 39.5024 191.689 38.1197 191.238 36.6937C192.816 35.4579 193.701 33.574 193.692 31.4826C193.684 30.1086 193.198 28.916 192.287 28.0086C191.403 27.1357 190.197 26.5913 189 26.6345C188.081 26.6345 185.306 26.6604 182.903 29.616C180.128 33.0468 178.749 39.2691 178.81 48.1271C178.922 68.574 180.102 74.053 188.48 74.2345L188.506 76.2826L164.083 76.4468L164.057 74.3728C168.263 74.2345 170.518 72.7481 171.776 69.3604C173.146 65.6357 173.372 59.3616 173.32 49.8036C173.242 36.9184 172.687 30.2728 169.72 27.3604C168.385 26.0382 166.52 25.416 163.762 25.3555L163.736 23.29L178.645 23.195L178.74 36.6765L179.842 33.2715C182.131 26.1851 186.953 21.9332 192.721 21.8987H192.79C195.835 21.8987 197.838 23.2382 198.992 24.3703C200.648 25.995 201.602 28.2419 201.611 30.5234L201.619 30.5407Z" fill="#ffffff"/>
<path d="M226.051 21.1295C211.108 21.2246 203.883 34.7234 203.978 49.6221C204.074 64.5122 211.455 78.0369 226.407 77.9419C241.35 77.8468 248.575 64.2357 248.479 49.3456C248.384 34.4468 241.003 21.0345 226.051 21.1295ZM226.381 75.2197H226.311C221.012 75.2197 212.174 71.8579 212.027 49.5703C212.001 44.6789 212.452 37.6876 214.802 32.2518C217.187 26.7122 220.977 23.895 226.077 23.869H226.155C231.454 23.869 240.283 27.2135 240.431 49.3974C240.561 71.7801 231.688 75.1851 226.389 75.2197H226.381Z" fill="#ffffff"/>
<path d="M300.118 75.5913L280.664 75.7209V73.5C282.251 72.9037 283.24 72.0222 283.656 70.8296C284.819 67.5024 281.644 61.8506 274.559 51.1864L274.099 50.495L273.605 51.1691C266.666 60.753 264.151 66.5864 265.461 70.1123C266.085 71.7975 267.533 72.9296 269.867 73.595L269.893 75.7728L249.789 75.9111L249.763 73.6901C255.296 71.8321 259.181 66.7679 272.312 48.8876L272.564 48.5419L272.312 48.2135C258.783 29.6938 256.085 26.1506 250.908 24.9321V22.7629L270.786 22.6246V24.8111C268.921 25.295 267.837 26.0728 267.403 27.2395C266.371 30.0222 269.416 34.8012 275.79 43.2185L276.258 43.8407L276.709 43.2098C281.939 36.037 283.96 30.5753 282.538 27.4382C281.861 25.9345 280.456 25.0185 278.375 24.7074L278.349 22.5901L297.906 22.4604L297.932 24.6642C292.858 26.358 286.97 33.3493 278.019 45.5L277.768 45.8456L278.01 46.174C293.405 67.5975 296.917 72.2037 300.109 73.3703L300.135 75.5827L300.118 75.5913Z" fill="#ffffff"/>
<path d="M319.502 6.20488C319.528 9.41105 317.065 11.9345 313.908 11.9604H313.864C312.338 11.9604 310.915 11.3901 309.883 10.3444C308.834 9.29006 308.262 7.84685 308.253 6.28265C308.227 2.97278 310.586 0.553026 313.847 0.5271H313.89C315.399 0.5271 316.804 1.08883 317.836 2.10858C318.903 3.1629 319.493 4.60611 319.502 6.20488Z" fill="#ffffff"/>
<path d="M327.576 75.4185L303.145 75.5827L303.119 73.5173C311.41 73.2407 312.503 68.0988 312.39 48.9568C312.26 29.8062 311.115 24.6728 302.832 24.5L302.806 22.4518L318.947 22.3481C317.88 29.6852 317.828 39.8827 317.88 48.9136C318.01 68.0815 319.172 73.1975 327.55 73.3704L327.576 75.4185Z" fill="#ffffff"/>
</g>
<defs>
<clipPath id="clip0_12_424">
<rect width="418" height="161" fill="#ffffff"/>
</clipPath>
</defs>
</svg>
