<svg width="315" height="96" viewBox="0 0 315 96" fill="none" xmlns="http://www.w3.org/2000/svg">
<path d="M1.97205 44.01H8.62773V80H1.97205V44.01ZM24.8402 80.6409C22.2436 80.6409 19.9429 80.0493 17.938 78.8661C15.9331 77.65 14.3719 76.023 13.2544 73.9852C12.1369 71.9474 11.5781 69.696 11.5781 67.231C11.5781 64.7988 12.1533 62.5473 13.3037 60.4767C14.454 58.406 16.0317 56.7626 18.0366 55.5465C20.0744 54.3304 22.3422 53.7224 24.8402 53.7224C27.3381 53.7224 29.5731 54.3304 31.5451 55.5465C33.5501 56.7626 35.0948 58.406 36.1795 60.4767C37.297 62.5145 37.8557 64.7659 37.8557 67.231C37.8557 68.0526 37.79 68.8415 37.6585 69.5974H18.4803C18.8747 71.1422 19.6142 72.3912 20.6989 73.3443C21.8164 74.2646 23.1968 74.7248 24.8402 74.7248C26.2206 74.7248 27.4531 74.4125 28.5378 73.788C29.6224 73.1307 30.477 72.2926 31.1014 71.2737L36.2781 75.1685C35.2263 76.8118 33.6815 78.143 31.6438 79.1619C29.606 80.1479 27.3381 80.6409 24.8402 80.6409ZM31.1507 64.618C30.7563 63.1389 29.9839 61.9064 28.8336 60.9204C27.6832 59.9344 26.3192 59.4413 24.7416 59.4413C23.1968 59.4413 21.8492 59.9179 20.6989 60.8711C19.5814 61.8242 18.8418 63.0732 18.4803 64.618H31.1507ZM52.125 80.6409C49.8243 80.6409 47.7043 80.0493 45.7651 78.8661C43.8259 77.65 42.2812 76.023 41.1308 73.9852C40.0133 71.9474 39.4545 69.7125 39.4545 67.2803C39.4545 64.8481 40.0133 62.6131 41.1308 60.5753C42.2812 58.5046 43.8259 56.8612 45.7651 55.6451C47.7043 54.429 49.8243 53.821 52.125 53.821C54.2285 53.821 55.9212 54.2154 57.203 55.0042C58.5177 55.793 59.5366 56.927 60.2597 58.406V54.3633H66.8661V80H60.4076V75.8094C59.6517 77.3542 58.6163 78.5538 57.3016 79.4084C56.0198 80.2301 54.2942 80.6409 52.125 80.6409ZM46.1102 67.231C46.1102 68.5457 46.406 69.7782 46.9977 70.9286C47.6221 72.0461 48.4603 72.9499 49.512 73.6401C50.5966 74.2975 51.8292 74.6262 53.2096 74.6262C54.6229 74.6262 55.8719 74.2975 56.9565 73.6401C58.074 72.9828 58.9286 72.0954 59.5202 70.9779C60.1118 69.8604 60.4076 68.6278 60.4076 67.2803C60.4076 65.9327 60.1118 64.7002 59.5202 63.5827C58.9286 62.4323 58.074 61.5284 56.9565 60.8711C55.8719 60.1809 54.6229 59.8358 53.2096 59.8358C51.8292 59.8358 50.5966 60.1809 49.512 60.8711C48.4274 61.5284 47.5893 62.4159 46.9977 63.5334C46.406 64.6509 46.1102 65.8834 46.1102 67.231ZM79.5962 80.6409C75.2906 80.6409 71.7409 79.1454 68.9471 76.1545L73.4336 72.0625C75.307 74.166 77.3119 75.2178 79.4483 75.2178C80.5658 75.2178 81.4368 74.9713 82.0613 74.4783C82.6858 73.9852 82.998 73.3443 82.998 72.5555C82.998 71.8324 82.6858 71.2737 82.0613 70.8793C81.4697 70.452 80.2207 70.0083 78.3144 69.5481C75.192 68.7922 73.0885 67.7568 72.0038 66.4421C70.9521 65.1274 70.4262 63.5005 70.4262 61.5613C70.4262 59.2606 71.2807 57.3871 72.9899 55.9409C74.699 54.4619 77.0326 53.7224 79.9906 53.7224C82.127 53.7224 83.9183 54.0511 85.3645 54.7084C86.8435 55.3658 88.224 56.5161 89.5058 58.1595L84.6743 61.8571C83.5239 60.0165 82.012 59.0962 80.1385 59.0962C79.1854 59.0962 78.413 59.2934 77.8214 59.6879C77.2298 60.0494 76.934 60.6081 76.934 61.3641C76.934 61.89 77.1476 62.3501 77.5749 62.7445C78.035 63.1061 78.9717 63.4676 80.3851 63.8292C83.9019 64.7495 86.3012 65.8834 87.583 67.231C88.8977 68.5785 89.5551 70.2876 89.5551 72.3583C89.5551 73.9031 89.1114 75.3164 88.224 76.5982C87.3694 77.8472 86.1862 78.8332 84.6743 79.5563C83.1624 80.2794 81.4697 80.6409 79.5962 80.6409ZM104.425 80.6409C101.829 80.6409 99.528 80.0493 97.523 78.8661C95.5181 77.65 93.9569 76.023 92.8394 73.9852C91.7219 71.9474 91.1632 69.696 91.1632 67.231C91.1632 64.7988 91.7383 62.5473 92.8887 60.4767C94.0391 58.406 95.6167 56.7626 97.6216 55.5465C99.6594 54.3304 101.927 53.7224 104.425 53.7224C106.923 53.7224 109.158 54.3304 111.13 55.5465C113.135 56.7626 114.68 58.406 115.765 60.4767C116.882 62.5145 117.441 64.7659 117.441 67.231C117.441 68.0526 117.375 68.8415 117.244 69.5974H98.0654C98.4598 71.1422 99.1993 72.3912 100.284 73.3443C101.401 74.2646 102.782 74.7248 104.425 74.7248C105.806 74.7248 107.038 74.4125 108.123 73.788C109.207 73.1307 110.062 72.2926 110.686 71.2737L115.863 75.1685C114.811 76.8118 113.267 78.143 111.229 79.1619C109.191 80.1479 106.923 80.6409 104.425 80.6409ZM110.736 64.618C110.341 63.1389 109.569 61.9064 108.419 60.9204C107.268 59.9344 105.904 59.4413 104.327 59.4413C102.782 59.4413 101.434 59.9179 100.284 60.8711C99.1664 61.8242 98.4269 63.0732 98.0654 64.618H110.736ZM120.363 54.3633H126.92V58.1102C128.267 55.2179 130.88 53.7717 134.759 53.7717C136.566 53.7717 138.193 54.199 139.639 55.0535C141.119 55.8752 142.269 57.0584 143.091 58.6032C143.978 56.9927 145.095 55.793 146.443 55.0042C147.823 54.1825 149.598 53.7717 151.768 53.7717C153.608 53.7717 155.268 54.2154 156.747 55.1028C158.226 55.9574 159.393 57.1899 160.247 58.8004C161.102 60.3781 161.529 62.2187 161.529 64.3222V80H154.874V65.9491C154.874 63.8127 154.413 62.2187 153.493 61.1669C152.573 60.1151 151.324 59.5892 149.746 59.5892C148.07 59.5892 146.772 60.0658 145.851 61.019C144.964 61.9721 144.52 63.6155 144.52 65.9491V80H137.865V65.9491C137.865 63.8127 137.372 62.2187 136.386 61.1669C135.4 60.1151 134.052 59.5892 132.343 59.5892C130.831 59.5892 129.566 60.1316 128.547 61.2162C127.528 62.268 127.018 63.8456 127.018 65.9491V80H120.363V54.3633ZM176.919 80.6409C174.618 80.6409 172.498 80.0493 170.559 78.8661C168.62 77.65 167.075 76.023 165.925 73.9852C164.807 71.9474 164.249 69.7125 164.249 67.2803C164.249 64.8481 164.807 62.6131 165.925 60.5753C167.075 58.5046 168.62 56.8612 170.559 55.6451C172.498 54.429 174.618 53.821 176.919 53.821C179.023 53.821 180.715 54.2154 181.997 55.0042C183.312 55.793 184.331 56.927 185.054 58.406V54.3633H191.66V80H185.202V75.8094C184.446 77.3542 183.41 78.5538 182.096 79.4084C180.814 80.2301 179.088 80.6409 176.919 80.6409ZM170.904 67.231C170.904 68.5457 171.2 69.7782 171.792 70.9286C172.416 72.0461 173.254 72.9499 174.306 73.6401C175.391 74.2975 176.623 74.6262 178.004 74.6262C179.417 74.6262 180.666 74.2975 181.751 73.6401C182.868 72.9828 183.723 72.0954 184.314 70.9779C184.906 69.8604 185.202 68.6278 185.202 67.2803C185.202 65.9327 184.906 64.7002 184.314 63.5827C183.723 62.4323 182.868 61.5284 181.751 60.8711C180.666 60.1809 179.417 59.8358 178.004 59.8358C176.623 59.8358 175.391 60.1809 174.306 60.8711C173.221 61.5284 172.383 62.4159 171.792 63.5334C171.2 64.6509 170.904 65.8834 170.904 67.231ZM208.088 90.5012C205.393 90.5012 203.043 90.1232 201.038 89.3673C199.033 88.6442 197.291 87.4116 195.812 85.6697L199.953 80.7888C201.103 82.1035 202.32 83.0238 203.601 83.5497C204.916 84.0756 206.428 84.3385 208.137 84.3385C209.32 84.3385 210.421 84.0263 211.44 83.4018C212.459 82.8102 213.264 81.9721 213.856 80.8874C214.481 79.8357 214.793 78.6524 214.793 77.3377V76.2038C214.037 77.4856 213.051 78.4717 211.835 79.1619C210.619 79.8192 209.025 80.1479 207.052 80.1479C204.752 80.1479 202.648 79.5727 200.742 78.4224C198.836 77.2391 197.34 75.645 196.256 73.6401C195.171 71.6023 194.629 69.3673 194.629 66.9351C194.629 64.5029 195.171 62.2844 196.256 60.2795C197.34 58.2417 198.836 56.6476 200.742 55.4972C202.648 54.314 204.752 53.7224 207.052 53.7224C209.09 53.7224 210.717 54.0839 211.933 54.807C213.182 55.4972 214.168 56.5161 214.891 57.8637V54.3633H221.448V77.7321C221.448 80.3287 220.873 82.5801 219.723 84.4864C218.605 86.4256 217.028 87.9046 214.99 88.9235C212.985 89.9753 210.684 90.5012 208.088 90.5012ZM201.284 66.9351C201.284 68.9729 201.892 70.682 203.108 72.0625C204.357 73.4101 206.034 74.0838 208.137 74.0838C210.274 74.0838 211.966 73.4101 213.215 72.0625C214.464 70.7149 215.089 69.0058 215.089 66.9351C215.089 64.8645 214.464 63.1554 213.215 61.8078C211.966 60.4602 210.274 59.7865 208.137 59.7865C206.034 59.7865 204.357 60.4602 203.108 61.8078C201.892 63.1554 201.284 64.8645 201.284 66.9351ZM263.895 80.6409C261.298 80.6409 258.997 80.0493 256.993 78.8661C254.988 77.65 253.426 76.023 252.309 73.9852C251.191 71.9474 250.633 69.696 250.633 67.231C250.633 64.7988 251.208 62.5473 252.358 60.4767C253.509 58.406 255.086 56.7626 257.091 55.5465C259.129 54.3304 261.397 53.7224 263.895 53.7224C266.393 53.7224 268.628 54.3304 270.6 55.5465C272.605 56.7626 274.149 58.406 275.234 60.4767C276.352 62.5145 276.91 64.7659 276.91 67.231C276.91 68.0526 276.845 68.8415 276.713 69.5974H257.535C257.929 71.1422 258.669 72.3912 259.753 73.3443C260.871 74.2646 262.251 74.7248 263.895 74.7248C265.275 74.7248 266.508 74.4125 267.592 73.788C268.677 73.1307 269.532 72.2926 270.156 71.2737L275.333 75.1685C274.281 76.8118 272.736 78.143 270.698 79.1619C268.661 80.1479 266.393 80.6409 263.895 80.6409ZM270.205 64.618C269.811 63.1389 269.039 61.9064 267.888 60.9204C266.738 59.9344 265.374 59.4413 263.796 59.4413C262.251 59.4413 260.904 59.9179 259.753 60.8711C258.636 61.8242 257.896 63.0732 257.535 64.618H270.205ZM288.582 80C285.985 80 284.029 79.3591 282.715 78.0772C281.4 76.7954 280.743 74.7905 280.743 72.0625V60.033H277.144V54.3633H280.743V49.1867L287.398 48.4964V54.3633H292.822V60.033H287.398V71.7174C287.398 73.295 288.089 74.0838 289.469 74.0838H292.23V80H288.582ZM303.581 80.6409C299.276 80.6409 295.726 79.1454 292.932 76.1545L297.418 72.0625C299.292 74.166 301.297 75.2178 303.433 75.2178C304.551 75.2178 305.422 74.9713 306.046 74.4783C306.671 73.9852 306.983 73.3443 306.983 72.5555C306.983 71.8324 306.671 71.2737 306.046 70.8793C305.455 70.452 304.206 70.0083 302.299 69.5481C299.177 68.7922 297.073 67.7568 295.989 66.4421C294.937 65.1274 294.411 63.5005 294.411 61.5613C294.411 59.2606 295.266 57.3871 296.975 55.9409C298.684 54.4619 301.017 53.7224 303.976 53.7224C306.112 53.7224 307.903 54.0511 309.349 54.7084C310.828 55.3658 312.209 56.5161 313.491 58.1595L308.659 61.8571C307.509 60.0165 305.997 59.0962 304.123 59.0962C303.17 59.0962 302.398 59.2934 301.806 59.6879C301.215 60.0494 300.919 60.6081 300.919 61.3641C300.919 61.89 301.133 62.3501 301.56 62.7445C302.02 63.1061 302.957 63.4676 304.37 63.8292C307.887 64.7495 310.286 65.8834 311.568 67.231C312.883 68.5785 313.54 70.2876 313.54 72.3583C313.54 73.9031 313.096 75.3164 312.209 76.5982C311.354 77.8472 310.171 78.8332 308.659 79.5563C307.147 80.2794 305.455 80.6409 303.581 80.6409Z" fill="white"/>
<path d="M229.93 67.3088C229.861 63.5381 231.289 60.4807 234.864 60.4154C238.438 60.35 239.888 63.3327 239.958 67.1255L240.063 72.9193L246.845 72.7953L246.739 67.0015C246.618 60.3856 243.193 54.9038 237.556 53.6026L237.55 53.2566L234.692 53.3088C227.366 53.4428 223.013 59.759 223.153 67.4327L223.259 73.2265L230.036 73.1026L229.93 67.3088Z" fill="#C62828"/>
<path d="M230.039 73.1025L230.157 79.5597L223.378 79.6837L223.26 73.2265L230.039 73.1025ZM246.848 72.7952L246.966 79.2524L240.187 79.3763L240.069 72.9191L246.848 72.7952Z" fill="#82AEC0"/>
<path d="M232.792 67.2564C232.723 63.4857 234.151 60.4283 237.725 60.363C241.3 60.2976 242.75 63.2803 242.819 67.0731L242.925 72.8669L249.704 72.743L249.598 66.9491C249.458 59.2755 244.874 53.1226 237.551 53.2565C230.226 53.3904 225.873 59.7067 226.013 67.3804L226.119 73.1742L232.898 73.0503L232.792 67.2564Z" fill="#F44336"/>
<path d="M232.897 73.0502L233.015 79.5074L226.236 79.6314L226.118 73.1742L232.897 73.0502ZM249.703 72.743L249.821 79.2001L243.042 79.3241L242.924 72.8669L249.703 72.743Z" fill="#E0E0E0"/>
</svg>
