<svg width="286" height="56" viewBox="0 0 286 56" fill="none" xmlns="http://www.w3.org/2000/svg">
<g filter="url(#filter0_d_2507_177)">
<path d="M1.80805 45V12.0031H7.91022V45H1.80805ZM22.7744 45.5876C15.497 45.5876 10.6152 40.0731 10.6152 33.2929C10.6152 26.5127 15.723 20.9077 22.7744 20.9077C29.8258 20.9077 34.7075 26.5127 34.7075 33.2929C34.7075 33.9709 34.6623 34.6941 34.5267 35.4625H16.9434C17.6214 38.2198 19.7007 40.1635 22.7744 40.1635C25.396 40.1635 27.4301 38.8074 28.5149 36.9994L33.261 40.5703C31.3626 43.5084 27.4301 45.5876 22.7744 45.5876ZM16.9434 30.8972H28.5601C27.8821 28.2755 25.6672 26.1511 22.684 26.1511C19.7911 26.1511 17.6214 28.0947 16.9434 30.8972ZM47.7901 45.5876C41.3263 45.5876 36.1733 40.1183 36.1733 33.3381C36.1733 26.5579 41.3263 20.9981 47.7901 20.9981C51.8582 20.9981 53.9826 22.6706 55.2483 25.2019V21.4954H61.3052V45H55.3839V41.1579C54.1182 43.8248 51.9938 45.5876 47.7901 45.5876ZM42.2755 33.2929C42.2755 36.8638 44.8972 40.0731 48.7845 40.0731C52.8074 40.0731 55.3839 36.9994 55.3839 33.3381C55.3839 29.6768 52.8074 26.5127 48.7845 26.5127C44.8972 26.5127 42.2755 29.6316 42.2755 33.2929ZM72.9767 45.5876C68.999 45.5876 65.7897 44.2316 63.2132 41.4743L67.3265 37.7226C69.0442 39.6663 70.8522 40.6155 72.8411 40.6155C74.9203 40.6155 76.0956 39.5759 76.0956 38.1746C76.0956 36.9542 75.508 36.2762 71.8015 35.4173C65.5185 33.9257 64.5693 31.078 64.5693 28.0947C64.5693 23.9814 67.8237 20.9077 73.3383 20.9077C77.1352 20.9077 79.6665 21.857 82.0621 24.9759L77.6324 28.3659C76.5024 26.5579 75.0559 25.8347 73.4739 25.8347C71.8015 25.8347 70.5358 26.4675 70.5358 27.9139C70.5358 28.7276 70.8974 29.4508 73.6999 30.174C80.5253 31.9368 82.1073 34.4681 82.1073 37.9938C82.1073 42.3331 78.1748 45.5876 72.9767 45.5876ZM95.7408 45.5876C88.4634 45.5876 83.5817 40.0731 83.5817 33.2929C83.5817 26.5127 88.6894 20.9077 95.7408 20.9077C102.792 20.9077 107.674 26.5127 107.674 33.2929C107.674 33.9709 107.629 34.6941 107.493 35.4625H89.9098C90.5879 38.2198 92.6671 40.1635 95.7408 40.1635C98.3625 40.1635 100.397 38.8074 101.481 36.9994L106.227 40.5703C104.329 43.5084 100.397 45.5876 95.7408 45.5876ZM89.9098 30.8972H101.527C100.849 28.2755 98.6337 26.1511 95.6504 26.1511C92.7575 26.1511 90.5879 28.0947 89.9098 30.8972ZM110.353 45V21.4954H116.365V24.9307C117.585 22.309 119.935 20.9529 123.552 20.9529C126.851 20.9529 129.654 22.535 131.191 25.3827C132.773 22.535 135.033 20.9529 139.146 20.9529C144.209 20.9529 148.096 24.7046 148.096 30.626V45H141.994V32.1176C141.994 28.0495 140.05 26.2867 137.293 26.2867C134.445 26.2867 132.501 27.5975 132.501 32.1176V45H126.399V32.1176C126.399 28.0495 124.365 26.2867 121.337 26.2867C118.76 26.2867 116.455 28.0495 116.455 32.1176V45H110.353ZM162.206 45.5876C155.742 45.5876 150.589 40.1183 150.589 33.3381C150.589 26.5579 155.742 20.9981 162.206 20.9981C166.274 20.9981 168.398 22.6706 169.664 25.2019V21.4954H175.721V45H169.799V41.1579C168.534 43.8248 166.409 45.5876 162.206 45.5876ZM156.691 33.2929C156.691 36.8638 159.313 40.0731 163.2 40.0731C167.223 40.0731 169.799 36.9994 169.799 33.3381C169.799 29.6768 167.223 26.5127 163.2 26.5127C159.313 26.5127 156.691 29.6316 156.691 33.2929ZM190.782 54.6279C186.036 54.6279 182.33 53.4978 179.527 50.1981L183.324 45.7232C185.539 48.2545 187.89 48.9777 190.828 48.9777C194.082 48.9777 196.93 46.3108 196.93 42.5591V41.5195C195.664 43.6892 193.63 45.1356 189.833 45.1356C183.369 45.1356 178.442 39.8019 178.442 33.0217C178.442 26.2415 183.369 20.9077 189.833 20.9077C193.72 20.9077 195.8 22.3994 197.02 24.7046V21.4954H203.032V42.9207C203.032 50.1529 197.969 54.6279 190.782 54.6279ZM184.545 33.0217C184.545 36.5926 186.85 39.5759 190.828 39.5759C194.851 39.5759 197.201 36.683 197.201 33.0217C197.201 29.3604 194.851 26.4675 190.828 26.4675C186.85 26.4675 184.545 29.3604 184.545 33.0217ZM239.731 45.5876C232.454 45.5876 227.572 40.0731 227.572 33.2929C227.572 26.5127 232.68 20.9077 239.731 20.9077C246.783 20.9077 251.665 26.5127 251.665 33.2929C251.665 33.9709 251.619 34.6941 251.484 35.4625H233.9C234.579 38.2198 236.658 40.1635 239.731 40.1635C242.353 40.1635 244.387 38.8074 245.472 36.9994L250.218 40.5703C248.32 43.5084 244.387 45.5876 239.731 45.5876ZM233.9 30.8972H245.517C244.839 28.2755 242.624 26.1511 239.641 26.1511C236.748 26.1511 234.579 28.0947 233.9 30.8972ZM262.365 45C257.71 45 255.178 42.8303 255.178 37.7226V26.6935H251.879V21.4954H255.178V16.7492L261.28 16.1164V21.4954H266.253V26.6935H261.28V37.4062C261.28 38.8978 262.004 39.5759 263.179 39.5759H265.71V45H262.365ZM276.117 45.5876C272.14 45.5876 268.93 44.2316 266.354 41.4743L270.467 37.7226C272.185 39.6663 273.993 40.6155 275.982 40.6155C278.061 40.6155 279.236 39.5759 279.236 38.1746C279.236 36.9542 278.649 36.2762 274.942 35.4173C268.659 33.9257 267.71 31.078 267.71 28.0947C267.71 23.9814 270.964 20.9077 276.479 20.9077C280.276 20.9077 282.807 21.857 285.203 24.9759L280.773 28.3659C279.643 26.5579 278.197 25.8347 276.615 25.8347C274.942 25.8347 273.677 26.4675 273.677 27.9139C273.677 28.7276 274.038 29.4508 276.841 30.174C283.666 31.9368 285.248 34.4681 285.248 37.9938C285.248 42.3331 281.316 45.5876 276.117 45.5876Z" fill="black"/>
<path d="M208.966 33.1033C208.898 29.3764 210.313 26.3545 213.855 26.2899C217.398 26.2253 218.834 29.1734 218.903 32.9221L219.008 38.6487L225.728 38.5261L225.623 32.7996C225.503 26.2605 222.109 20.8423 216.524 19.5562L216.518 19.2142L213.685 19.2659C206.426 19.3982 202.112 25.6412 202.251 33.2258L202.356 38.9524L209.071 38.8299L208.966 33.1033Z" fill="#C62828"/>
<path d="M209.07 38.8272L209.187 45.2094L202.469 45.3319L202.352 38.9497L209.07 38.8272ZM225.727 38.5234L225.844 44.9057L219.126 45.0282L219.009 38.6459L225.727 38.5234Z" fill="#82AEC0"/>
<path d="M211.805 33.0506C211.736 29.3236 213.151 26.3017 216.693 26.2371C220.236 26.1725 221.673 29.1206 221.741 32.8693L221.846 38.5959L228.564 38.4734L228.459 32.7468C228.32 25.1622 223.778 19.0808 216.521 19.2131C209.262 19.3455 204.948 25.5885 205.087 33.1731L205.192 38.8996L211.91 38.7771L211.805 33.0506Z" fill="#F44336"/>
<path d="M211.904 38.7774L212.021 45.1596L205.303 45.2821L205.186 38.8999L211.904 38.7774ZM228.559 38.4736L228.676 44.8559L221.958 44.9784L221.841 38.5961L228.559 38.4736Z" fill="#E0E0E0"/>
</g>
<defs>
<filter id="filter0_d_2507_177" x="1.16501" y="12.0029" width="284.726" height="43.9111" filterUnits="userSpaceOnUse" color-interpolation-filters="sRGB">
<feFlood flood-opacity="0" result="BackgroundImageFix"/>
<feColorMatrix in="SourceAlpha" type="matrix" values="0 0 0 0 0 0 0 0 0 0 0 0 0 0 0 0 0 0 127 0" result="hardAlpha"/>
<feOffset dy="0.643038"/>
<feGaussianBlur stdDeviation="0.321519"/>
<feComposite in2="hardAlpha" operator="out"/>
<feColorMatrix type="matrix" values="0 0 0 0 0 0 0 0 0 0 0 0 0 0 0 0 0 0 0.25 0"/>
<feBlend mode="normal" in2="BackgroundImageFix" result="effect1_dropShadow_2507_177"/>
<feBlend mode="normal" in="SourceGraphic" in2="effect1_dropShadow_2507_177" result="shape"/>
</filter>
</defs>
</svg>
