<?xml version="1.0" encoding="UTF-8"?>
<svg id="Layer_1" xmlns="http://www.w3.org/2000/svg" width="441.85" height="138" version="1.1" viewBox="0 0 441.85 138">
  <!-- Generator: Adobe Illustrator 30.1.0, SVG Export Plug-In . SVG Version: 2.1.1 Build 136)  -->
  <defs>
    <style>
      .st0 {
        fill: #ffffff;
      }

      .st1 {
        fill: #ffffff;
      }

      .st2 {
        fill: #ffffff;
      }

      .st3 {
        fill: #ffffff;
      }
    </style>
  </defs>
  <g>
    <g>
      <path class="st1" d="M179.37,17.76c.31.37.88.14,1.31.2,11,1.56,17.64,9.86,18.14,20.76l-.04,1.53-13.48-.04c-.17-4.76-2.02-8.35-6.73-9.17-1.05-.18-1.85-.11-2.89,0-3.2.32-5.77,2.65-6.11,5.85-.13,1.21-.16,2.21,0,3.42.43,2.97,1.44,5.77,3.26,8.44l19.22,28.3c4.14,6.1,6.99,11.8,7.55,19.01v5.52c-1.13,11.15-9.3,17.94-20.25,18.67h-3.94c-1.41-.32-3-.08-4.48-.6-2.54-.89-4.28-1.27-6.8-2.91-5.95-3.88-9.1-10.33-9.49-17.26l.02-2.37h13.64c-.19.64.2,1.16.21,1.58.12,4.34,3.34,7.8,7.69,7.95.81.03,1.54.08,2.37,0,2.47-.23,4.93-1.34,6.13-3.67.55-1.05.72-1.98,1.02-2.97.34-1.09.2-2.06,0-3.16-.28-1.57-.38-3.06-1.22-4.56l-1.22-2.19c-1.93-3.46-4.13-6.53-6.33-9.78l-5.52-8.16-5.54-8.14-4.39-6.65c-.64-.96-1.27-2.06-1.82-3.08-2.67-4.98-4.26-9.21-4.26-14.77v-2.37c0-2.01.34-3.92.98-5.91,2.58-7.98,9.23-12.2,17.16-13.27.41-.06.93-.2,1.31-.2h4.47Z"/>
      <path class="st1" d="M228.02,17.95h3.68c11.08,0,20.51,10.53,20.51,21.3v59.69c0,4.32-1.67,8.43-3.88,11.85-3.48,5.38-9.18,8.44-15.31,9.18-.43.05-1.01-.18-1.31.19-1.29-.02-2.35-.04-3.42,0-.4-.4-1.06-.13-1.58-.2-2.57-.31-4.82-.86-7.09-1.95-1.5-.72-5.37-3.38-6.29-4.6l-1.84-2.42c-.72-.95-1.15-2.13-1.72-3.2-1.21-2.25-1.71-4.61-1.98-7.03-.06-.43.17-1.01-.2-1.31v-60.74c.37-.31.14-.88.2-1.31,1.41-11.21,9.27-18.71,20.24-19.46ZM234.88,105.35c2.08-1.35,3.36-3.91,3.36-6.46v-59.59c.01-2.67-1.23-5.29-3.35-6.63-3.05-1.94-7.22-1.89-10.24.1-2.04,1.35-3.23,3.93-3.23,6.53v59.6c.01,2.59,1.32,5.11,3.34,6.42,2.98,1.93,7.03,2.04,10.12.04Z"/>
    </g>
    <g>
      <g>
        <path class="st3" d="M347.68,99.73c0-.07-.09-.27-.31-.27l-17.62.27-3.43,19.43h-14.09s1.31-6.4,1.31-6.4l17.86-94.17,14.74.04,18.78,100.47-14.04.05-3.2-19.43ZM345.98,87.45l-7.12-43.84-7.26,43.94,14.37-.1Z"/>
        <path class="st3" d="M289.02,17.76c.31.37.88.14,1.31.2,10.32,1.43,17.29,8.97,18.66,19.19.06.43-.17,1.01.21,1.31,0,2.21.14,4.42,0,6.78h-13.83c-.02-2.1-.02-4.19-.24-6.25-.2-1.94-.71-3.7-2.09-5.38-1.24-1.51-3.02-2.05-4.81-2.31-1.05-.15-1.84-.14-2.89,0-2.05.3-4,1.04-5.3,2.91-1.11,1.6-1.6,3.45-1.6,5.3v58.9c0,4.54,2.44,7.77,7.17,8.21.83.08,1.55.04,2.37,0,2.6-.09,4.79-1.31,6.16-3.71.73-1.27.76-2.63,1.01-3.99.39-2.11.1-4.26.2-6.58l13.89.04v5.76c-.02,2.93-.65,5.62-1.67,8.33-2.87,7.56-9.6,12.57-17.49,13.49-.52.08-1.18-.19-1.58.2-1.14-.03-2.28-.03-3.42,0-.29-.42-.89-.16-1.31-.19l-1.53-.13c-1.2-.1-5.88-1.79-7.22-2.71-.97-.66-2.06-1.24-2.87-2.03-1.46-1.42-4.16-4.22-4.94-5.95-1.43-3.18-2.63-6.73-2.63-10.22v-59.69c0-3,1.22-8.37,3.03-10.94.57-.81.88-1.79,1.64-2.55,1.12-1.12,2.13-2.39,3.39-3.34,3.26-2.48,6.95-3.97,10.88-4.45.42-.05.93-.2,1.31-.2h4.21Z"/>
      </g>
      <g>
        <path class="st3" d="M386.52,18.8l13.84,66.27,11.86-55.71,1.25-5.93c.35-1.64.52-3.22.98-4.69h13.13c.19,0,.32.17.28.26-3.59,1.26-5.59,5.22-5.51,9.08,1.43.06,2.7.09,4.05-.03.15-1.89.52-3.82,2.18-4.97,2.26-1.56,5.81-1.55,7.86.45,2.75,2.69,1.9,7.1-1.1,9.22-3.29,2.33-6.76,3.26-9.65,5.65-3.64,3-3.41,6.3-3.36,10.3,0,.09.03.27.28.27h19.19s-.06,11.68-.06,11.68c-1.59-3.87-5.06-5.84-9.14-5.93-5.08-.11-9.33,3.05-10.06,8.19-.74,5.2-.08,11.33,5.66,13.28,2.21.75,4.32.44,6.65.18l-5.24,9.14c1.65.11,2.98.11,4.49,0l6.32-11.03,1.37-2.95v21.72c-1.9-3.25-5-4.98-8.66-5.08-5.61-.16-9.92,3.82-10.32,9.47l.04,12.31c.02,4.37,2.89,7.74,6.94,9.14l-15.32.05-.05-53.37c-.4.5-.42.95-.51,1.34l-8.74,40.44-8.88.06c-.33,0-.57-.17-.74-.27l-8.35-38.09c-.17-.77-.55-1.21-.37-1.88.07-.28-.26-.89-.51-1.04l-.05,52.81h-13.53s-.04-100.36-.04-100.36h13.81Z"/>
        <g>
          <path class="st3" d="M432.73,73.2c-3.14.11-5.65-1.55-6.06-4.61-.23-1.68-.2-3.51.04-5.18.44-3.01,2.76-4.59,5.63-4.61s5.38,1.58,5.8,4.68c.22,1.62.25,3.38.05,5.01-.35,2.87-2.51,4.6-5.47,4.71Z"/>
          <path class="st3" d="M441.8,44.77l-.31.04h-14.96c.06-2.14,1.38-3.79,3.2-4.75l7.21-3.82c2.22-1.18,3.75-2.92,4.82-5.23l.04,13.77Z"/>
          <g>
            <path class="st3" d="M436.76,114.03c-2.13,1.82-5.45,1.8-7.57.14-1.48-1.16-2.08-3.1-2.14-4.97-.11-3.66-.12-7.14,0-10.79.06-1.86.69-3.81,2.16-4.96,2.06-1.61,5.2-1.61,7.29-.04,1.49,1.12,2.18,3.02,2.25,4.85.16,3.75.15,7.37,0,11.14-.06,1.67-.65,3.46-2.01,4.63Z"/>
            <path class="st2" d="M441.83,119.14l-6.12-.04c2.6-.71,4.72-2.26,6.01-4.69.25,1.67.05,2.95.11,4.73Z"/>
          </g>
          <path class="st0" d="M441.78,18.71c.03,1.89.17,3.42-.08,5.37-.99-2.43-2.61-4.15-4.98-5.24l5.06-.13Z"/>
        </g>
      </g>
    </g>
  </g>
  <path class="st1" d="M73.33.07c.49.41,1.22.11,1.82.2,32.56,2.83,58.91,28.6,62.4,61.1.05.43-.18,1,.2,1.3-.03.51,0,1.05.06,1.56.09.87-.24,1.81.19,2.6-.04,1.47-.04,2.95,0,4.42-.43.79-.1,1.73-.19,2.6-.06.51-.1,1.05-.06,1.56-.37.3-.15.87-.2,1.3-3.58,32.76-30.31,58.62-63.18,61.1-.78.06-1.64-.22-2.34.19h-6.24c-.58-.38-1.39-.17-2.08-.19-.46-.02-1.11-.22-1.56-.07-.3-.37-.87-.14-1.3-.2-.94-.26-2.03-.15-3.1-.37-2.5-.52-7.86-1.63-10.07-2.39-6.7-2.31-13.51-5.66-19.25-9.81-2.58-1.86-7.9-6.45-9.94-8.78l-2.19-2.49c-.33-.37-.87-.99-1.17-1.4l-2.64-3.55c-1.22-1.64-2.25-3.32-3.26-5.07l-1.42-2.45-1.3-2.61-1.08-2.55c-.94-2.21-2.47-6.41-3.02-8.65l-1.08-4.43c-.42-1.7-.73-3.33-.79-4.98-.02-.43.14-1-.21-1.3.02-.43-.01-.87-.06-1.3-.06-.51.19-1.17-.19-1.56.05-.87-.07-1.73-.07-2.6v-4.42c0-.87.11-1.73.07-2.6.39-.39.14-1.05.19-1.56.05-.43.08-.87.06-1.3.35-.3.19-.87.21-1.3.05-1.58.36-3.14.76-4.77l1.71-6.83c.35-1.39,2.2-6.23,2.84-7.55l2.15-4.38,2.37-4.09c.68-1.17,1.32-2.24,2.19-3.28.46-.55.71-1.31,1.25-1.84.9-.87,1.54-1.91,2.33-2.84l1.54-1.8,4.87-4.91c.12-.12,4.25-3.51,4.67-3.82C37.11,6.63,48.21,2.04,60.32.52c.43-.06,1,.17,1.3-.21.36.2.93-.18,1.3-.06.63.2,1.26-.17,1.82-.19,2.86-.14,5.72,0,8.58,0ZM121.18,76.63h-5.16c-4.09,24.72-26.53,41.87-51.13,39.62-24.55-2.25-43.38-23.07-43.13-47.72.25-24.69,19.58-45.17,44.21-46.85,24.61-1.68,46.56,15.94,50.17,40.55l5.16-.11c-1.48-11.39-6.7-21.8-14.53-29.82-20.41-20.91-53.65-21.08-74.32-.88s-21.14,54.12-.37,74.83c20.86,20.8,54.87,20.49,75.31-1.15,7.32-7.75,12.32-17.74,13.78-28.46ZM89.15,97.76c5.03-4.67,6.91-11.26,5.5-17.92-1.09-5.15-4.23-9.14-9.12-11.2-3.04-1.29-6.2-2.04-9.55-2.42l-10.95-1.24c-2.86-.32-5.57-.92-8.18-1.92-3.97-1.51-6.25-4.7-6.83-8.8-1.49-10.44,7.2-16.15,16.51-17.13,9.79-1.04,21.16,3.2,21.33,14.63l5.39-1.08c-.27-7.01-4.3-12.98-10.63-16.13-9.3-4.63-20.81-3.95-29.51,1.59-6.81,4.34-9.73,11.71-8.41,19.49.96,5.68,4.13,10.19,9.58,12.38,2.97,1.19,6.05,1.96,9.32,2.34l11.39,1.31c2.83.33,5.53.92,8.11,1.98,3.34,1.37,5.42,3.99,6.13,7.48,1.11,5.5-.88,10.78-5.55,14.11-13.45,9.59-32.26,2.33-33.99-7.62l-.72-4.14-5.38.72c.43,7.26,3.42,12.68,9.49,16.48,11.03,6.9,26.61,5.9,36.07-2.88Z"/>
</svg>